<svg width="40" height="40" viewBox="0 0 40 40" fill="none" xmlns="http://www.w3.org/2000/svg">
<path d="M20 10V36.6667M20 10H14.1072C13.2389 10 12.4062 9.64882 11.7922 9.0237C11.1783 8.39858 10.8333 7.55073 10.8333 6.66668C10.8333 5.78262 11.1783 4.93478 11.7922 4.30965C12.4062 3.68453 13.2389 3.33334 14.1072 3.33334C18.6905 3.33334 20 10 20 10ZM20 10H25.8929C26.7611 10 27.5938 9.64882 28.2078 9.0237C28.8218 8.39858 29.1667 7.55073 29.1667 6.66668C29.1667 5.78262 28.8218 4.93478 28.2078 4.30965C27.5938 3.68453 26.7611 3.33334 25.8929 3.33334C21.3095 3.33334 20 10 20 10ZM33.3333 18.3333V31.3333C33.3333 33.2002 33.3333 34.1336 32.97 34.8466C32.6505 35.4739 32.1405 35.9838 31.5133 36.3034C30.8003 36.6667 29.8669 36.6667 28 36.6667L12 36.6667C10.1332 36.6667 9.19975 36.6667 8.48671 36.3034C7.8595 35.9838 7.34957 35.4738 7.02999 34.8466C6.66668 34.1336 6.66668 33.2002 6.66668 31.3333V18.3333M3.33334 12.6667L3.33334 15.6667C3.33334 16.6001 3.33334 17.0668 3.515 17.4233C3.67479 17.7369 3.92976 17.9919 4.24336 18.1517C4.59988 18.3333 5.06659 18.3333 6.00001 18.3333L34 18.3333C34.9334 18.3333 35.4001 18.3333 35.7567 18.1517C36.0703 17.9919 36.3252 17.7369 36.485 17.4233C36.6667 17.0668 36.6667 16.6001 36.6667 15.6667V12.6667C36.6667 11.7333 36.6667 11.2665 36.485 10.91C36.3252 10.5964 36.0703 10.3415 35.7567 10.1817C35.4001 10 34.9334 10 34 10L6.00001 10C5.06659 10 4.59988 10 4.24336 10.1817C3.92976 10.3415 3.67479 10.5964 3.515 10.91C3.33334 11.2665 3.33334 11.7333 3.33334 12.6667Z" stroke="#0077FF" stroke-width="3" stroke-linecap="round" stroke-linejoin="round"/>
</svg>
