<svg width="40" height="40" viewBox="0 0 40 40" fill="none" xmlns="http://www.w3.org/2000/svg">
<path d="M10 18.3333V25M30 15V21.6667M28.3333 6.66667C32.4145 6.66667 34.6219 7.29127 35.7202 7.77574C35.8665 7.84026 35.9396 7.87252 36.1507 8.07396C36.2772 8.1947 36.5081 8.54899 36.5676 8.71349C36.6667 8.9879 36.6667 9.1379 36.6667 9.43791V27.3519C36.6667 28.8665 36.6667 29.6238 36.4395 30.0131C36.2085 30.4091 35.9857 30.5931 35.5532 30.7453C35.1281 30.8949 34.27 30.73 32.5536 30.4003C31.3523 30.1694 29.9275 30 28.3333 30C23.3333 30 18.3333 33.3333 11.6667 33.3333C7.5855 33.3333 5.37812 32.7087 4.27981 32.2243C4.13355 32.1597 4.06042 32.1275 3.84934 31.9261C3.72282 31.8053 3.49187 31.451 3.43246 31.2865C3.33334 31.0121 3.33334 30.8621 3.33334 30.5621L3.33334 12.6481C3.33334 11.1335 3.33334 10.3762 3.56047 9.98691C3.79151 9.59094 4.01433 9.40687 4.44678 9.25469C4.8719 9.10509 5.73007 9.26998 7.44639 9.59975C8.64771 9.83057 10.0725 10 11.6667 10C16.6667 10 21.6667 6.66667 28.3333 6.66667ZM24.1667 20C24.1667 22.3012 22.3012 24.1667 20 24.1667C17.6988 24.1667 15.8333 22.3012 15.8333 20C15.8333 17.6988 17.6988 15.8333 20 15.8333C22.3012 15.8333 24.1667 17.6988 24.1667 20Z" stroke="white" stroke-width="3" stroke-linecap="round" stroke-linejoin="round"/>
</svg>
